<?xml version="1.0" encoding="UTF-8" standalone="no"?>
<!-- Created with Inkscape (http://www.inkscape.org/) -->

<svg
   width="256mm"
   height="256mm"
   viewBox="0 0 256 256"
   version="1.1"
   id="svg5"
   xml:space="preserve"
   inkscape:version="1.2.1 (9c6d41e410, 2022-07-14)"
   sodipodi:docname="semi_supervised_ob_oc.svg"
   inkscape:export-filename="semi_supervised_ob_oc.png"
   inkscape:export-xdpi="29.77"
   inkscape:export-ydpi="29.77"
   xmlns:inkscape="http://www.inkscape.org/namespaces/inkscape"
   xmlns:sodipodi="http://sodipodi.sourceforge.net/DTD/sodipodi-0.dtd"
   xmlns:xlink="http://www.w3.org/1999/xlink"
   xmlns="http://www.w3.org/2000/svg"
   xmlns:svg="http://www.w3.org/2000/svg"><sodipodi:namedview
     id="namedview7"
     pagecolor="#ffffff"
     bordercolor="#000000"
     borderopacity="0.25"
     inkscape:showpageshadow="2"
     inkscape:pageopacity="0.0"
     inkscape:pagecheckerboard="0"
     inkscape:deskcolor="#d1d1d1"
     inkscape:document-units="mm"
     showgrid="false"
     showguides="true"
     inkscape:zoom="0.5"
     inkscape:cx="159"
     inkscape:cy="550"
     inkscape:window-width="956"
     inkscape:window-height="1013"
     inkscape:window-x="0"
     inkscape:window-y="0"
     inkscape:window-maximized="0"
     inkscape:current-layer="layer1"><sodipodi:guide
       position="0,128"
       orientation="0,1"
       id="guide21326"
       inkscape:locked="false"
       inkscape:label=""
       inkscape:color="rgb(0,134,229)" /><sodipodi:guide
       position="128,255.99999"
       orientation="-1,0"
       id="guide22054"
       inkscape:locked="false"
       inkscape:label=""
       inkscape:color="rgb(0,134,229)" /></sodipodi:namedview><defs
     id="defs2"><linearGradient
       inkscape:collect="always"
       id="linearGradient29381"><stop
         style="stop-color:#054d90;stop-opacity:1;"
         offset="0"
         id="stop29377" /><stop
         style="stop-color:#192a4d;stop-opacity:1;"
         offset="1"
         id="stop29379" /></linearGradient><linearGradient
       id="linearGradient27411"
       inkscape:swatch="solid"><stop
         style="stop-color:#0000ff;stop-opacity:1;"
         offset="0"
         id="stop27409" /></linearGradient><linearGradient
       inkscape:collect="always"
       xlink:href="#linearGradient29381"
       id="linearGradient29383"
       x1="0"
       y1="0"
       x2="256"
       y2="256"
       gradientUnits="userSpaceOnUse"
       gradientTransform="translate(8.9257812e-6)" /><filter
       style="color-interpolation-filters:sRGB;"
       inkscape:label="Blur"
       id="filter32048"
       x="-0.027272728"
       y="-0.027272728"
       width="1.0545455"
       height="1.0545455"><feGaussianBlur
         stdDeviation="2 2"
         result="blur"
         id="feGaussianBlur32046" /></filter><filter
       style="color-interpolation-filters:sRGB;"
       inkscape:label="Blur"
       id="filter32796"
       x="-0.031033401"
       y="-0.037498694"
       width="1.0620668"
       height="1.0749974"><feGaussianBlur
         stdDeviation="2 2"
         result="blur"
         id="feGaussianBlur32794" /></filter><linearGradient
       inkscape:collect="always"
       xlink:href="#linearGradient29381"
       id="linearGradient65150"
       gradientUnits="userSpaceOnUse"
       gradientTransform="translate(-1.5428162e-5)"
       x1="0"
       y1="0"
       x2="256"
       y2="256" /></defs><g
     inkscape:label="Layer 1"
     inkscape:groupmode="layer"
     id="layer1"><rect
       style="opacity:1;fill:url(#linearGradient29383);fill-opacity:1;stroke:none;stroke-width:2;stroke-linejoin:round;stroke-miterlimit:1;stroke-dasharray:none;stroke-opacity:1"
       id="rect27362"
       width="256"
       height="256"
       x="0"
       y="0"
       inkscape:label="bg" /><path
       id="path7905"
       style="opacity:0.8;fill:#000000;fill-opacity:1;stroke:none;stroke-width:3;stroke-linecap:round;stroke-linejoin:round;stroke-miterlimit:1"
       d="M 159.94838 76.080627 L 56.109237 179.91977 L 64.62758 190.5031 L 168.46672 190.5031 L 168.46672 182.13927 L 175.19861 190.5031 L 199.09172 190.5031 L 199.09172 141.94896 L 193.67397 135.21759 L 199.09172 135.21759 L 199.09172 86.663961 L 190.57338 76.080627 L 168.46672 121.00398 L 168.46672 86.663961 L 159.94838 76.080627 z M 168.46672 126.85376 L 175.19861 135.21759 L 188.67789 135.21759 L 168.46672 176.2895 L 168.46672 126.85376 z " /><path
       id="rect60044"
       style="color:#000000;fill:#e49797;stroke-linejoin:round;stroke-miterlimit:1"
       d="M 228.7695 0 L 228.7695 77.773031 C 228.7695 89.748627 219.15931 99.357243 207.18374 99.357243 L 190.57338 99.357243 L 190.57338 101.35764 L 207.18374 101.35764 C 220.23273 101.35764 230.76989 90.822024 230.76989 77.773031 L 230.76989 0 L 228.7695 0 z M 113.47679 99.357243 L 113.47679 101.35764 L 142.91014 101.35764 L 142.91014 99.357243 L 113.47679 99.357243 z " /><path
       id="rect66661"
       style="color:#000000;fill:#e49797;stroke-linejoin:round;stroke-miterlimit:1"
       d="M -23.112801 127 L -23.112801 128.99988 L 105.41424 128.99988 C 117.38986 128.99988 127 138.61054 127 150.58616 L 127 152.99996 L 127.99994 152.99996 L 127.99994 143.77004 C 125.08285 134.0567 116.09164 127 105.41424 127 L -23.112801 127 z " /><path
       id="path8022"
       style="color:#000000;fill:#e49797;stroke-linejoin:round;stroke-miterlimit:1"
       d="M 113.47679 154.64276 L 113.47679 156.64264 L 142.91014 156.64264 L 142.91014 154.64276 L 113.47679 154.64276 z M 190.57338 154.64276 L 190.57338 156.64264 L 207.18374 156.64264 C 219.15931 156.64264 228.7695 166.25125 228.7695 178.22685 L 228.7695 255.99988 L 230.76989 255.99988 L 230.76989 178.22685 C 230.76989 165.17783 220.23273 154.64276 207.18374 154.64276 L 190.57338 154.64276 z " /><path
       id="rect399"
       style="fill:#c3e4fd;fill-opacity:1;stroke:none;stroke-width:3;stroke-linecap:round;stroke-linejoin:round;stroke-miterlimit:1"
       d="M 56.109237 76.080627 L 56.109237 179.91977 L 159.94838 179.91977 L 159.94838 76.080627 L 56.109237 76.080627 z M 166.68027 76.080627 L 166.68027 124.63425 L 190.57338 124.63425 L 190.57338 76.080627 L 166.68027 76.080627 z M 166.68027 131.36562 L 166.68027 179.91977 L 190.57338 179.91977 L 190.57338 131.36562 L 166.68027 131.36562 z " /><rect
       style="opacity:1;mix-blend-mode:exclusion;fill:url(#linearGradient65150);fill-opacity:1;stroke:none;stroke-width:2;stroke-linejoin:round;stroke-miterlimit:1;stroke-dasharray:none;stroke-opacity:1"
       id="rect49677"
       width="256"
       height="256"
       x="1.7763568e-15"
       y="0"
       inkscape:label="bg" /></g></svg>
