<?xml version="1.0" encoding="UTF-8" standalone="no"?>
<!-- Created with Inkscape (http://www.inkscape.org/) -->

<svg
   width="256mm"
   height="256mm"
   viewBox="0 0 256 256"
   version="1.1"
   id="svg5"
   xml:space="preserve"
   inkscape:version="1.2.1 (9c6d41e410, 2022-07-14)"
   sodipodi:docname="mb-not-rounded.svg"
   inkscape:export-filename="mb.png"
   inkscape:export-xdpi="96"
   inkscape:export-ydpi="96"
   xmlns:inkscape="http://www.inkscape.org/namespaces/inkscape"
   xmlns:sodipodi="http://sodipodi.sourceforge.net/DTD/sodipodi-0.dtd"
   xmlns:xlink="http://www.w3.org/1999/xlink"
   xmlns="http://www.w3.org/2000/svg"
   xmlns:svg="http://www.w3.org/2000/svg"><sodipodi:namedview
     id="namedview7"
     pagecolor="#ffffff"
     bordercolor="#000000"
     borderopacity="0.25"
     inkscape:showpageshadow="2"
     inkscape:pageopacity="0.0"
     inkscape:pagecheckerboard="0"
     inkscape:deskcolor="#d1d1d1"
     inkscape:document-units="mm"
     showgrid="false"
     inkscape:zoom="0.26268005"
     inkscape:cx="390.20854"
     inkscape:cy="567.22998"
     inkscape:window-width="1920"
     inkscape:window-height="1015"
     inkscape:window-x="0"
     inkscape:window-y="0"
     inkscape:window-maximized="1"
     inkscape:current-layer="layer1" /><defs
     id="defs2"><linearGradient
       inkscape:collect="always"
       id="linearGradient2573"><stop
         style="stop-color:#14003b;stop-opacity:1;"
         offset="0"
         id="stop2569" /><stop
         style="stop-color:#ffffff;stop-opacity:1;"
         offset="1"
         id="stop2571" /></linearGradient><linearGradient
       inkscape:collect="always"
       xlink:href="#linearGradient2573"
       id="linearGradient1741"
       x1="0"
       y1="0"
       x2="488.21472"
       y2="644.33984"
       gradientUnits="userSpaceOnUse" /></defs><g
     inkscape:label="Layer 1"
     inkscape:groupmode="layer"
     id="layer1"><rect
       style="fill:url(#linearGradient1741);fill-opacity:1;stroke-width:10;stroke-linejoin:round;stroke-miterlimit:1;stroke:none"
       id="rect994"
       width="256"
       height="256"
       x="0"
       y="0" /><path
       style="opacity:1;fill:#ffffff;fill-opacity:0.30000001;stroke:none;stroke-width:10;stroke-linejoin:round;stroke-miterlimit:1;stroke-dasharray:none;stroke-opacity:1"
       d="m 150.45233,70.551317 -0.28302,106.038063 45.81614,0.15952 20.94549,-19.95434 -12.62105,-33.51075 6.99387,-37.199451 -13.71067,-15.491246 z"
       id="path13085" /><g
       aria-label="MB"
       id="text4375"
       style="font-weight:bold;font-size:70.5559px;-inkscape-font-specification:'sans-serif Bold';fill:#ffffff;stroke-width:0.264583"
       transform="matrix(2.553003,0,0,2.553003,-11.292553,-121.19937)"><path
         d="M 34.204902,120.95144 22.069287,81.440135 h -0.282224 q 0.07056,1.411118 0.211668,4.233354 0.141112,2.822236 0.282224,6.067807 0.141112,3.175016 0.141112,5.785584 v 23.42456 H 12.89702 V 70.574526 H 27.431536 L 39.355483,109.09805 H 39.56715 L 52.196657,70.574526 H 66.731172 V 120.95144 H 56.78279 V 97.103545 q 0,-2.398901 0.07056,-5.503361 0.141112,-3.104459 0.211668,-5.856139 0.141112,-2.822237 0.211667,-4.233355 h -0.282223 l -12.982286,39.44075 z"
         id="path4377"
         style="fill:#ffffff" /><path
         d="m 74.562877,70.574526 q 10.089489,0 15.240079,2.822236 5.15058,2.822236 5.15058,9.948382 0,4.30391 -2.04612,7.267258 -1.97557,2.963347 -5.71503,3.598351 v 0.352779 q 2.54001,0.493891 4.58613,1.763898 2.04612,1.270006 3.24557,3.668906 1.19945,2.398904 1.19945,6.350034 0,6.84392 -4.93891,10.72449 -4.93891,3.88058 -13.546733,3.88058 H 58.899467 V 70.574526 Z m 1.19945,19.96732 q 4.656689,0 6.420589,-1.481674 1.83445,-1.481674 1.83445,-4.30391 0,-2.892792 -2.11668,-4.162798 -2.11667,-1.270006 -6.702806,-1.270006 h -5.644472 v 11.218388 z m -6.208919,8.466708 v 13.123396 h 6.985034 q 4.797804,0 6.702814,-1.83445 1.90501,-1.90501 1.90501,-5.00947 0,-2.82224 -1.97557,-4.51558 -1.90501,-1.763896 -6.985033,-1.763896 z"
         id="path4379"
         style="fill:#ffffff" /><path
         style="fill:#ffffff;fill-opacity:1;stroke-width:0.178057"
         d="m 219.2211,456.79539 -4.20609,-0.24714 0.001,-53.63752 c 7.1e-4,-47.40444 0.65056,-83.50382 1.65886,-92.16525 0.25022,-2.14937 0.10116,-2.86013 -0.59984,-2.86013 -0.91755,0 -2.85503,5.74486 -37.96101,112.55904 l -11.88993,36.17656 -18.44152,-0.17248 -18.44152,-0.17248 -22.83582,-74.36357 C 93.945883,341.01246 83.53927,307.41763 83.379776,307.25724 c -1.121659,-1.12797 -1.232466,2.91801 -0.450323,16.44298 0.543332,9.39541 1.045882,38.55404 1.278758,74.19532 l 0.38365,58.71693 H 66.691217 48.790574 v -94.8968 -94.8968 l 27.351952,0.17579 27.351954,0.17579 21.7738,70.32573 c 11.97559,38.67914 22.0889,71.46136 22.47402,72.84937 0.38512,1.38801 0.97721,2.52365 1.31576,2.52365 0.56684,0 6.02891,-16.36571 37.34067,-111.88183 l 11.19605,-34.1534 43.20001,0.006 c 23.76,0.003 48.06728,0.30209 54.01618,0.66396 44.93576,2.73339 63.48579,16.52434 63.5357,47.23539 0.0331,20.35923 -8.82146,34.91724 -24.18102,39.75668 -2.60984,0.8223 -4.74515,1.86463 -4.74515,2.31629 0,0.45166 1.28706,1.15374 2.86013,1.56017 5.04153,1.30257 5.46346,1.46472 10.9199,4.19644 9.93576,4.97425 16.54114,13.94228 18.93518,25.70802 1.68965,8.30397 1.03386,23.81557 -1.30999,30.98552 -6.60473,20.20422 -25.6438,33.54266 -52.2674,36.61766 -5.54935,0.64094 -80.87273,1.41265 -89.33722,0.91528 z m 84.13298,-34.08607 c 13.26037,-3.69104 19.45035,-12.60978 18.48875,-26.63925 -0.41536,-6.05996 -2.37622,-10.52401 -6.33227,-14.41595 -6.25238,-6.15104 -11.05335,-7.21696 -34.37591,-7.6322 l -18.33852,-0.32651 v 25.39004 25.39003 l 18.33852,-0.34295 c 13.92495,-0.26041 19.27255,-0.60294 22.21943,-1.42321 z m 0.9173,-82.44594 c 5.34268,-1.93 9.12929,-5.22774 11.45055,-9.97222 1.58951,-3.24886 1.86312,-4.64905 1.87051,-9.57255 0.0132,-8.77898 -2.76378,-13.68915 -9.74169,-17.22512 -5.71149,-2.89424 -11.97265,-3.68383 -29.21138,-3.68383 h -15.84324 v 21.26157 21.26156 l 18.67501,-0.2896 c 17.16791,-0.26623 19.00792,-0.40986 22.80024,-1.77981 z"
         id="path4386"
         transform="scale(0.26458333)" /></g><path
       id="path10000"
       style="fill:#ffffff;fill-opacity:0.29811;stroke-width:0.675481"
       d="M 21.633822 58.977795 L 21.633822 187.5901 L 90.043599 255.99988 L 237.10232 255.99988 L 255.99988 255.99988 L 255.99988 237.10232 L 255.99988 117.74785 L 228.0636 77.367371 L 200.85699 116.96909 L 214.96776 151.93026 L 185.35251 176.60162 L 159.07246 176.23679 L 136.76943 59.044458 L 121.96568 58.977795 L 89.267419 169.39793 L 49.378381 59.210339 L 21.633822 58.977795 z " /></g></svg>
