<?xml version="1.0" encoding="UTF-8" standalone="no"?>
<!-- Created with Inkscape (http://www.inkscape.org/) -->

<svg
   width="256mm"
   height="256mm"
   viewBox="0 0 256 256"
   version="1.1"
   id="svg5"
   xml:space="preserve"
   inkscape:version="1.2.1 (9c6d41e410, 2022-07-14)"
   sodipodi:docname="bp_mat_soft.svg"
   inkscape:export-filename="bp_mat_soft.png"
   inkscape:export-xdpi="49.610001"
   inkscape:export-ydpi="49.610001"
   xmlns:inkscape="http://www.inkscape.org/namespaces/inkscape"
   xmlns:sodipodi="http://sodipodi.sourceforge.net/DTD/sodipodi-0.dtd"
   xmlns:xlink="http://www.w3.org/1999/xlink"
   xmlns="http://www.w3.org/2000/svg"
   xmlns:svg="http://www.w3.org/2000/svg"><sodipodi:namedview
     id="namedview7"
     pagecolor="#ffffff"
     bordercolor="#000000"
     borderopacity="0.25"
     inkscape:showpageshadow="2"
     inkscape:pageopacity="0.0"
     inkscape:pagecheckerboard="0"
     inkscape:deskcolor="#d1d1d1"
     inkscape:document-units="mm"
     showgrid="false"
     showguides="true"
     inkscape:zoom="0.35355339"
     inkscape:cx="640.63874"
     inkscape:cy="825.90072"
     inkscape:window-width="956"
     inkscape:window-height="1013"
     inkscape:window-x="0"
     inkscape:window-y="0"
     inkscape:window-maximized="0"
     inkscape:current-layer="layer1"><sodipodi:guide
       position="0,128"
       orientation="0,1"
       id="guide21326"
       inkscape:locked="false"
       inkscape:label=""
       inkscape:color="rgb(0,134,229)" /><sodipodi:guide
       position="128,255.99999"
       orientation="-1,0"
       id="guide22054"
       inkscape:locked="false"
       inkscape:label=""
       inkscape:color="rgb(0,134,229)" /></sodipodi:namedview><defs
     id="defs2"><linearGradient
       inkscape:collect="always"
       id="linearGradient29381"><stop
         style="stop-color:#054d90;stop-opacity:1;"
         offset="0"
         id="stop29377" /><stop
         style="stop-color:#192a4d;stop-opacity:1;"
         offset="1"
         id="stop29379" /></linearGradient><linearGradient
       id="linearGradient27411"
       inkscape:swatch="solid"><stop
         style="stop-color:#0000ff;stop-opacity:1;"
         offset="0"
         id="stop27409" /></linearGradient><linearGradient
       inkscape:collect="always"
       xlink:href="#linearGradient29381"
       id="linearGradient29383"
       x1="0"
       y1="0"
       x2="256"
       y2="256"
       gradientUnits="userSpaceOnUse"
       gradientTransform="translate(-5.9691406e-6,-2.905426e-5)" /><filter
       style="color-interpolation-filters:sRGB;"
       inkscape:label="Blur"
       id="filter32048"
       x="-0.027272728"
       y="-0.027272728"
       width="1.0545455"
       height="1.0545455"><feGaussianBlur
         stdDeviation="2 2"
         result="blur"
         id="feGaussianBlur32046" /></filter><filter
       style="color-interpolation-filters:sRGB;"
       inkscape:label="Blur"
       id="filter32796"
       x="-0.031033401"
       y="-0.037498694"
       width="1.0620668"
       height="1.0749974"><feGaussianBlur
         stdDeviation="2 2"
         result="blur"
         id="feGaussianBlur32794" /></filter><linearGradient
       inkscape:collect="always"
       xlink:href="#linearGradient29381"
       id="linearGradient65150"
       gradientUnits="userSpaceOnUse"
       x1="0"
       y1="0"
       x2="256"
       y2="256"
       gradientTransform="translate(-1.2748718e-5)" /></defs><g
     inkscape:label="Layer 1"
     inkscape:groupmode="layer"
     id="layer1"><rect
       style="opacity:1;fill:url(#linearGradient29383);fill-opacity:1;stroke:none;stroke-width:2;stroke-linejoin:round;stroke-miterlimit:1;stroke-dasharray:none;stroke-opacity:1"
       id="rect27362"
       width="256"
       height="256"
       x="1.2397766e-05"
       y="0"
       inkscape:label="bg" /><path
       style="opacity:0.8;fill:#000000;fill-opacity:1;stroke:none;stroke-width:2;stroke-linecap:round;stroke-linejoin:round;stroke-miterlimit:1"
       d="m 193.46921,59.685188 8.46668,10.583333 V 206.89816 h -20.26147 l -8.46667,-10.58334 z"
       id="path48820" /><path
       id="path74990"
       style="color:#000000;fill:#e49797;stroke-linejoin:round;stroke-miterlimit:1"
       d="m -45.437917,372.35589 v 71.61423 c 0,7.68292 6.21752,13.90045 13.90044,13.90045 h 22.8766402 v -1.99988 H -31.537477 c -6.60952,0 -11.90057,-5.29103 -11.90057,-11.90057 v -71.61423 z" /><path
       id="rect60044"
       style="color:#000000;fill:#e49797;stroke-linejoin:round;stroke-miterlimit:1"
       d="m -132.57778,387.31002 c -13.04902,0 -23.58616,10.53713 -23.58616,23.58615 v 93.70695 h 1.99988 v -93.70695 c 0,-11.97561 9.61066,-21.58576 21.58628,-21.58576 H 6.259735 c 11.97562,0 21.58422,9.61015 21.58422,21.58576 v 93.70695 h 1.99987 v -93.70695 c 0,-13.04902 -10.53507,-23.58615 -23.58409,-23.58615 z" /><path
       id="rect65152"
       style="color:#000000;fill:#e49797;stroke-linejoin:round;stroke-miterlimit:1"
       d="m -101.85411,299.7799 c -7.68294,0 -13.90045,6.2175 -13.90045,13.90044 v 64.7206 h 1.99988 v -64.7206 c 0,-6.60954 5.29103,-11.90056 11.90057,-11.90056 h 79.294903 c 6.60954,0 11.8985,5.29102 11.8985,11.90056 v 64.7206 h 1.9998702 v -64.7206 c 0,-7.68294 -6.2154202,-13.90044 -13.8983702,-13.90044 z" /><path
       style="opacity:0.8;fill:#000000;fill-opacity:1;stroke:none;stroke-width:2;stroke-linecap:round;stroke-linejoin:round;stroke-miterlimit:1"
       d="m 196.46189,539.71996 0.16787,136.62958 H 125.2932 l -8.46668,-10.58333 71.1687,-136.62958 z"
       id="path39477" /><rect
       style="fill:#c3e4fd;fill-opacity:1;stroke:none;stroke-width:2.45818;stroke-linejoin:round;stroke-miterlimit:1;stroke-opacity:1"
       id="rect40848"
       width="71.168701"
       height="136.62958"
       x="116.82652"
       y="529.13666" /><rect
       style="opacity:1;fill:none;fill-opacity:1;stroke:#e49797;stroke-width:2;stroke-linecap:butt;stroke-linejoin:round;stroke-miterlimit:1;stroke-dasharray:none;stroke-opacity:1;paint-order:normal"
       id="rect66661"
       width="184.00787"
       height="213.50081"
       x="463.5672"
       y="26.670301"
       rx="22.585455" /><path
       style="opacity:0.8;fill:#000000;fill-opacity:1;stroke:none;stroke-width:2;stroke-linecap:round;stroke-linejoin:round;stroke-miterlimit:1"
       d="m 82.792252,59.685188 8.46668,10.583333 V 206.89816 h -20.26147 l -8.46667,-10.58334 z"
       id="path36888" /><rect
       style="fill:#c3e4fd;fill-opacity:1;stroke:none;stroke-width:1.31161;stroke-linejoin:round;stroke-miterlimit:1;stroke-opacity:1"
       id="rect36798"
       width="20.261454"
       height="136.62962"
       x="62.5308"
       y="59.685188" /><path
       style="opacity:0.8;fill:#000000;fill-opacity:1;stroke:none;stroke-width:2;stroke-linecap:round;stroke-linejoin:round;stroke-miterlimit:1"
       d="m 313.13234,351.30132 -70.8328,-1.3e-4 -8.46684,-10.5832 70.83298,-20.26145 8.46666,10.58333 z"
       id="path39475" /><rect
       style="fill:#c3e4fd;fill-opacity:1;stroke:none;stroke-width:0.944387;stroke-linejoin:round;stroke-miterlimit:1;stroke-opacity:1"
       id="rect36830"
       width="20.261454"
       height="70.83297"
       x="-340.71799"
       y="233.8327"
       transform="rotate(-90)" /><path
       style="opacity:0.8;fill:#000000;fill-opacity:1;stroke:none;stroke-width:2;stroke-linecap:round;stroke-linejoin:round;stroke-miterlimit:1"
       d="m -16.041101,68.283232 8.4666689,10.583331 0.16787,136.629577 H -78.743124 L -87.2098,204.91281 Z"
       id="path37253" /><path
       id="path48781"
       style="opacity:0.8;fill:#000000;fill-opacity:1;stroke:none;stroke-width:0.840529;stroke-linecap:round;stroke-linejoin:round;stroke-miterlimit:1"
       d="M 94.449808,26.350004 67.601836,39.792594 94.449808,53.235184 88.524589,42.250325 V 41.02146 H 198.91583 V 38.563729 H 88.524589 v -1.228866 z" /><path
       id="rect41211"
       style="opacity:0.8;fill:#e2c254;fill-opacity:1;stroke:none;stroke-width:0.840529;stroke-linecap:round;stroke-linejoin:round;stroke-miterlimit:1"
       d="M 88.099804,20 61.251832,33.44259 88.099804,46.88518 82.174585,35.900321 V 34.671456 H 192.56579 V 32.213725 H 82.174585 v -1.228866 z" /><path
       sodipodi:type="star"
       style="opacity:0.8;fill:#000000;fill-opacity:1;stroke:none;stroke-width:2;stroke-linecap:round;stroke-linejoin:round;stroke-miterlimit:1"
       id="path41265"
       inkscape:flatsided="false"
       sodipodi:sides="3"
       sodipodi:cx="95.872795"
       sodipodi:cy="15.65594"
       sodipodi:r1="16.828121"
       sodipodi:r2="8.4140606"
       sodipodi:arg1="-3.1415927"
       sodipodi:arg2="-2.0943951"
       inkscape:rounded="0"
       inkscape:randomized="0"
       d="m 79.044674,15.655941 12.62109,-7.286791 12.621096,-7.2867908 0,14.5735808 0,14.57358 -12.621095,-7.28679 z"
       inkscape:transform-center-x="4.2070314"
       transform="translate(200.37882,-1.0823592)" /><path
       id="path48783"
       style="opacity:0.8;fill:#000000;fill-opacity:1;stroke:none;stroke-width:0.840529;stroke-linecap:round;stroke-linejoin:round;stroke-miterlimit:1"
       d="m 172.06786,242.35004 26.84797,-13.44259 -26.84797,-13.44259 5.92522,10.98486 v 1.22887 H 67.601834 v 2.45773 H 177.99308 v 1.22886 z" /><path
       id="path48777"
       style="opacity:0.8;fill:#e2c254;fill-opacity:1;stroke:none;stroke-width:0.840529;stroke-linecap:round;stroke-linejoin:round;stroke-miterlimit:1"
       d="m 165.71782,236 26.84797,-13.44259 -26.84797,-13.44259 5.92522,10.98486 v 1.22887 H 61.25183 v 2.45773 h 110.39121 v 1.22886 z" /><rect
       style="fill:#c3e4fd;fill-opacity:1;stroke:none;stroke-width:1.31161;stroke-linejoin:round;stroke-miterlimit:1;stroke-opacity:1"
       id="rect48822"
       width="20.261454"
       height="136.62962"
       x="173.20775"
       y="59.685188" /><path
       id="ellipse1002"
       style="opacity:0.8;fill:#000000;fill-opacity:1;stroke-width:2.05932;stroke-linecap:round;stroke-linejoin:round;stroke-miterlimit:1"
       d="M 139.50156 64.483403 L 137.81123 69.014392 A 28.027092 69.651566 0 0 0 136.46661 68.93171 A 28.027092 69.651566 0 0 0 108.43938 138.58327 A 28.027092 69.651566 0 0 0 117.32462 189.4582 L 115.46169 190.29278 L 123.92835 200.87611 L 123.93714 200.85751 A 28.027092 69.651566 0 0 0 136.46661 208.23483 A 28.027092 69.651566 0 0 0 164.49384 138.58327 A 28.027092 69.651566 0 0 0 147.96668 75.067253 L 147.96823 75.066736 L 139.50156 64.483403 z " /><ellipse
       style="opacity:1;fill:#c4e4fd;stroke-width:2.05932;stroke-linecap:round;stroke-linejoin:round;stroke-miterlimit:1;fill-opacity:1"
       id="path395"
       ry="69.651566"
       rx="28.027092"
       cy="128"
       cx="128" /><rect
       style="opacity:1;mix-blend-mode:exclusion;fill:url(#linearGradient65150);fill-opacity:1;stroke:none;stroke-width:2;stroke-linejoin:round;stroke-miterlimit:1;stroke-dasharray:none;stroke-opacity:1"
       id="rect49677"
       width="256"
       height="256"
       x="1.2397766e-05"
       y="0"
       inkscape:label="bg" /></g></svg>
